<?xml version="1.0" encoding="iso-8859-1"?>
<!-- Generator: Adobe Illustrator 21.0.0, SVG Export Plug-In . SVG Version: 6.00 Build 0)  -->
<svg xmlns="http://www.w3.org/2000/svg" xmlns:xlink="http://www.w3.org/1999/xlink" version="1.1" id="Capa_1" x="0px" y="0px" viewBox="0 0 512 512" style="enable-background:new 0 0 512 512;" xml:space="preserve" width="512" height="512">
<g>
	<path d="M186.273,269.494c-5.857-5.858-15.355-5.858-21.213,0l-6.432,6.431c2.195-51.813,45.028-93.292,97.371-93.292   c26.012,0,50.484,10.143,68.91,28.562c5.858,5.856,15.356,5.854,21.213-0.004c5.856-5.859,5.854-15.356-0.004-21.213   c-24.091-24.082-56.096-37.344-90.119-37.344c-68.943,0-125.271,55.02-127.397,123.456l-6.596-6.596   c-5.857-5.858-15.355-5.858-21.213,0c-5.858,5.858-5.858,15.355,0,21.213l32.133,32.133c2.929,2.929,6.768,4.394,10.606,4.394   s7.678-1.464,10.606-4.394l32.133-32.133C192.131,284.849,192.131,275.352,186.273,269.494z"/>
	<path d="M416.667,104.433h-28.342c-6.531,0-12.405-3.63-15.315-9.446l-5.499-11.005c-13.513-27.026-40.678-43.815-70.895-43.815   h-81.232c-30.217,0-57.382,16.789-70.899,43.825l-5.481,10.969c-2.923,5.843-8.797,9.473-15.328,9.473H95.333   C42.602,104.433,0,147.113,0,199.767V376.5c0,52.739,42.687,95.333,95.333,95.333h321.334c52.731,0,95.333-42.68,95.333-95.333   V199.767C512,147.028,469.313,104.433,416.667,104.433z M482,376.5c0,36.65-29.839,65.333-65.333,65.333H95.333   C59.838,441.833,30,413.15,30,376.5V199.767c0-36.65,29.839-65.333,65.333-65.333h28.342c17.965,0,34.118-9.981,42.171-26.077   l5.476-10.958c8.398-16.797,25.282-27.231,44.063-27.231h81.232c18.78,0,35.664,10.435,44.058,27.222l5.493,10.995   c8.04,16.068,24.193,26.049,42.158,26.049h28.342c35.495,0,65.333,28.684,65.333,65.333V376.5z"/>
	<path d="M379.073,237.36c-2.929-2.929-6.768-4.394-10.606-4.394s-7.678,1.464-10.606,4.394l-32.133,32.133   c-5.858,5.858-5.858,15.355,0,21.213c5.857,5.858,15.355,5.858,21.213,0l6.432-6.431c-2.195,51.813-45.028,93.292-97.371,93.292   c-26.011,0-50.484-10.144-68.91-28.562c-5.86-5.857-15.357-5.855-21.213,0.004s-5.854,15.357,0.004,21.213   c24.092,24.082,56.097,37.344,90.119,37.344c68.943,0,125.271-55.02,127.397-123.456l6.596,6.596   c5.857,5.858,15.355,5.858,21.213,0c5.858-5.858,5.858-15.355,0-21.213L379.073,237.36z"/>
</g>















</svg>
