<svg xmlns="http://www.w3.org/2000/svg" height="698pt" version="1.1" viewBox="0 0 698 698.75007" width="698pt">
<g id="surface1">
<path d="M 37.835938 132.085938 L 132.492188 37.433594 L 114.660156 19.601562 C 88.523438 -6.535156 46.148438 -6.535156 20.007812 19.601562 C -6.125 45.738281 -6.125 88.117188 20.007812 114.25 Z M 37.835938 132.085938 " style=" stroke:none;fill-rule:nonzero;fill:rgb(0%,0%,0%);fill-opacity:1;" />
<path d="M 55.484375 149.726562 L 150.136719 55.078125 L 169.921875 74.871094 L 75.273438 169.515625 Z M 55.484375 149.726562 " style=" stroke:none;fill-rule:nonzero;fill:rgb(0%,0%,0%);fill-opacity:1;" />
<path d="M 87.746094 630.097656 C 87.746094 640.425781 79.367188 648.808594 69.027344 648.808594 C 58.695312 648.808594 50.3125 640.425781 50.3125 630.097656 C 50.3125 619.757812 58.695312 611.378906 69.027344 611.378906 C 79.367188 611.378906 87.746094 619.757812 87.746094 630.097656 Z M 87.746094 630.097656 " style=" stroke:none;fill-rule:nonzero;fill:rgb(0%,0%,0%);fill-opacity:1;" />
<path d="M 424.625 260.507812 C 420.910156 260.503906 417.355469 261.972656 414.730469 264.605469 L 140.238281 539.097656 C 134.773438 544.558594 134.773438 553.421875 140.238281 558.886719 C 145.703125 564.351562 154.5625 564.351562 160.027344 558.886719 L 434.527344 284.394531 C 438.527344 280.390625 439.722656 274.371094 437.558594 269.144531 C 435.390625 263.914062 430.285156 260.503906 424.625 260.507812 Z M 424.625 260.507812 " style=" stroke:none;fill-rule:nonzero;fill:rgb(0%,0%,0%);fill-opacity:1;" />
<path d="M 167.777344 112.308594 L 187.574219 92.519531 L 332.128906 237.078125 L 312.335938 256.867188 Z M 167.777344 112.308594 " style=" stroke:none;fill-rule:nonzero;fill:rgb(0%,0%,0%);fill-opacity:1;" />
<path d="M 130.347656 149.734375 L 150.140625 129.945312 L 294.699219 274.503906 L 274.90625 294.292969 Z M 130.347656 149.734375 " style=" stroke:none;fill-rule:nonzero;fill:rgb(0%,0%,0%);fill-opacity:1;" />
<path d="M 92.917969 187.160156 L 112.710938 167.371094 L 257.269531 311.925781 L 237.472656 331.71875 Z M 92.917969 187.160156 " style=" stroke:none;fill-rule:nonzero;fill:rgb(0%,0%,0%);fill-opacity:1;" />
<path d="M 367.402344 461.652344 L 565.09375 659.339844 L 573.003906 627.679688 L 387.195312 441.863281 Z M 367.402344 461.652344 " style=" stroke:none;fill-rule:nonzero;fill:rgb(0%,0%,0%);fill-opacity:1;" />
<path d="M 404.835938 424.222656 L 591.996094 611.378906 L 611.78125 611.378906 L 611.78125 591.582031 L 424.625 404.425781 Z M 404.835938 424.222656 " style=" stroke:none;fill-rule:nonzero;fill:rgb(0%,0%,0%);fill-opacity:1;" />
<path d="M 659.746094 564.6875 L 462.054688 366.996094 L 442.269531 386.792969 L 628.085938 572.597656 Z M 659.746094 564.6875 " style=" stroke:none;fill-rule:nonzero;fill:rgb(0%,0%,0%);fill-opacity:1;" />
<path d="M 663.351562 689.742188 L 696.101562 695.695312 L 690.148438 662.945312 Z M 663.351562 689.742188 " style=" stroke:none;fill-rule:nonzero;fill:rgb(0%,0%,0%);fill-opacity:1;" />
<path d="M 676.199219 586.296875 L 636.734375 596.164062 L 636.734375 623.855469 C 636.734375 630.746094 631.152344 636.332031 624.257812 636.332031 L 596.570312 636.332031 L 586.707031 675.792969 L 633.503906 684.300781 L 684.664062 633.144531 Z M 676.199219 586.296875 " style=" stroke:none;fill-rule:nonzero;fill:rgb(0%,0%,0%);fill-opacity:1;" />
<path d="M 508.996094 293.777344 C 541.609375 303.144531 576.472656 300.835938 607.566406 287.238281 C 643.195312 271.9375 671.585938 243.539062 686.894531 207.902344 C 697.417969 183.785156 701.226562 157.265625 697.902344 131.160156 L 609.625 219.421875 C 590.136719 238.90625 558.546875 238.90625 539.058594 219.421875 L 479.683594 160.054688 C 460.199219 140.566406 460.199219 108.976562 479.683594 89.488281 L 567.964844 1.246094 C 561.808594 0.433594 555.609375 0.015625 549.398438 0.00390625 C 529.363281 0.0820312 509.550781 4.230469 491.164062 12.207031 C 455.535156 27.511719 427.136719 55.898438 411.835938 91.535156 C 398.25 122.625 395.933594 157.484375 405.296875 190.101562 C 406.515625 194.445312 405.292969 199.105469 402.105469 202.292969 L 21.496094 582.976562 C 11.179688 592.867188 4.183594 605.699219 1.457031 619.726562 C -2.476562 641.367188 4.457031 663.558594 20.007812 679.113281 C 35.5625 694.664062 57.753906 701.597656 79.394531 697.671875 C 93.421875 694.9375 106.257812 687.941406 116.148438 677.625 L 496.804688 296.953125 C 499.996094 293.765625 504.65625 292.554688 508.996094 293.777344 Z M 69.027344 673.761719 C 44.914062 673.761719 25.359375 654.210938 25.359375 630.097656 C 25.359375 605.976562 44.914062 586.425781 69.027344 586.425781 C 93.144531 586.425781 112.699219 605.976562 112.699219 630.097656 C 112.699219 654.210938 93.144531 673.761719 69.027344 673.761719 Z M 452.160156 302.035156 L 177.667969 576.53125 C 162.457031 591.738281 137.800781 591.738281 122.597656 576.53125 C 107.382812 561.320312 107.382812 536.664062 122.597656 521.457031 L 397.09375 246.960938 C 412.300781 231.75 436.957031 231.75 452.160156 246.960938 C 467.375 262.167969 467.375 286.824219 452.160156 302.035156 Z M 452.160156 302.035156 " style=" stroke:none;fill-rule:nonzero;fill:rgb(0%,0%,0%);fill-opacity:1;" />
</g>
</svg>