<svg fill="#000000" xmlns="http://www.w3.org/2000/svg"  viewBox="0 0 24 24" width="480px" height="480px"><path d="M13.5 5l-.43-2.582C13.029 2.177 12.821 2 12.576 2h-1.153c-.244 0-.453.177-.493.418L10.5 5H13.5zM10.5 19l.43 2.582C10.971 21.823 11.179 22 11.424 22h1.153c.244 0 .453-.177.493-.418L13.5 19H10.5zM19 13.5l2.582-.43C21.823 13.029 22 12.821 22 12.576v-1.153c0-.244-.177-.453-.418-.493L19 10.5V13.5zM5 10.5l-2.582.43C2.177 10.971 2 11.179 2 11.424v1.153c0 .244.177.453.418.493L5 13.5V10.5zM9.799 5.188L8.135 3.167C7.98 2.978 7.711 2.929 7.499 3.052L6.501 3.628C6.289 3.75 6.197 4.008 6.283 4.236l.918 2.451L9.799 5.188zM14.201 18.812l1.664 2.021c.155.189.424.237.636.115l.998-.576c.212-.122.304-.38.218-.608l-.918-2.451L14.201 18.812zM18.812 9.799l2.021-1.664c.189-.155.237-.424.115-.636l-.576-.998c-.122-.212-.38-.304-.608-.218l-2.451.918L18.812 9.799zM5.188 14.201l-2.021 1.664c-.189.155-.237.424-.115.636l.576.998c.122.212.38.304.608.218l2.451-.918L5.188 14.201zM6.688 7.201L4.236 6.283C4.008 6.197 3.75 6.289 3.628 6.501L3.052 7.499C2.929 7.711 2.978 7.98 3.167 8.135l2.021 1.664L6.688 7.201zM17.312 16.799l2.451.918c.229.086.486-.007.608-.218l.576-.998c.122-.212.073-.481-.115-.636l-2.021-1.664L17.312 16.799zM16.799 6.688l.918-2.451c.086-.229-.007-.486-.218-.608l-.998-.576c-.212-.122-.481-.073-.636.115l-1.664 2.021L16.799 6.688zM7.201 17.312l-.918 2.451c-.086.229.007.486.218.608l.998.576c.212.122.481.073.636-.115l1.664-2.021L7.201 17.312zM12 9A3 3 0 1 0 12 15 3 3 0 1 0 12 9z"/><path fill="none" stroke="#000000" stroke-miterlimit="10" stroke-width="2" d="M12 11L12 5M11.134 12.5L5.938 15.5M12.866 12.5L18.062 15.5M12 5A7 7 0 1 0 12 19 7 7 0 1 0 12 5z"/></svg>